# xmcd
#
# Track frame offsets:
#	150
#	11337
#	25602
#	39182
#	51028
#	64329
#	79435
#	89751
#	101720
#	118687
#
# Disc length: 1712 seconds
#
# Revision: 1
# Processed by: cddbd v1.5.2PL0 Copyright (c) Steve Scherf et al.
# Submitted via: FairStars CD Ripper 1.90
#
DISCID=7b06ae0a
DTITLE=Conway Twitty - Conway Twitty CD 3
DYEAR=2007
DGENRE=Country
TTITLE0=It's Only Make Believe
TTITLE1=You've Never Been This Far Before
TTITLE2=The Games That Daddies Play
TTITLE3=I'm Not Through Loving You Yet
TTITLE4=After All the Good is Gone
TTITLE5=(Lost Her Love) On Our Last Date
TTITLE6=(I Can't Believe) She Gives It All to Me
TTITLE7=She Needs Someone to Hold Her (When She Cries)
TTITLE8=Don't Cry Joni
TTITLE9=I'll Try
EXTD=
EXTT0=
EXTT1=
EXTT2=
EXTT3=
EXTT4=
EXTT5=
EXTT6=
EXTT7=
EXTT8=
EXTT9=
PLAYORDER=
